# xmcd
# 
# Track frame offsets:
#     150
#     8325
#     17028
#     28825
#     35510
#     40873
#     46708
#     52783
#     61083
#     66000
#     75978
#     82433
#     90060
#     96885
#     103745
#     109860
#     117198
#     125753
#     130633
#     138720
#     149050
#     157498
#     165055
#     172423
#     178813
#     187763
#     193585
#     202898
#     212433
#     220505
#     232075
#     249315
# 
# Disc length: 3357
# 
# Revision: 9
# Processed by: cddbd v1.5.2PL0 Copyright (c) Steve Scherf et al.
# Submitted via: fre:ac v1.0.17
# 
DISCID=b00d1b20
DTITLE=佐橋俊彦 - 機動戦士ガンダムSEED ORIGINAL SOUNDTRACK[Ⅱ]
DYEAR=2003
DGENRE=Soundtrack
TTITLE0=暁の影
TTITLE1=空中姿勢
TTITLE2=ザフトの侵攻
TTITLE3=潜伏
TTITLE4=静寂の葛藤
TTITLE5=微速停滞
TTITLE6=出撃への前進
TTITLE7=敵機襲来
TTITLE8=鼓動
TTITLE9=戦場の決意
TTITLE10=侵入
TTITLE11=攻撃姿勢
TTITLE12=真空の波動
TTITLE13=哀しみの星
TTITLE14=裏切り
TTITLE15=平和の祈り
TTITLE16=地吹雪
TTITLE17=聖戦の疑心
TTITLE18=砂の声
TTITLE19=砂塵の街
TTITLE20=母なる海
TTITLE21=想い
TTITLE22=孤独
TTITLE23=不信
TTITLE24=キラの涙
TTITLE25=存在への疑問
TTITLE26=地上戦
TTITLE27=渇きの夢
TTITLE28=攻撃開始
TTITLE29=戦闘部隊
TTITLE30=STRIKE出撃
TTITLE31=再会の予感
EXTD=YEAR: 2003
EXTT0=
EXTT1=
EXTT2=
EXTT3=
EXTT4=
EXTT5=
EXTT6=
EXTT7=
EXTT8=
EXTT9=
EXTT10=
EXTT11=
EXTT12=
EXTT13=
EXTT14=
EXTT15=
EXTT16=
EXTT17=
EXTT18=
EXTT19=
EXTT20=
EXTT21=
EXTT22=
EXTT23=
EXTT24=
EXTT25=
EXTT26=
EXTT27=
EXTT28=
EXTT29=
EXTT30=
EXTT31=
PLAYORDER=
